<svg width="161" height="182" viewBox="0 0 161 182" fill="none" xmlns="http://www.w3.org/2000/svg">
<mask id="mask0_28_4" style="mask-type:alpha" maskUnits="userSpaceOnUse" x="0" y="0" width="161" height="182">
<path d="M147.978 182H13.0221C5.83018 182 0 176.18 0 169V13C0 5.8203 5.83018 0 13.0221 0H100.625L161 60.2727V169C161 176.18 155.17 182 147.978 182Z" fill="url(#paint0_linear_28_4)"/>
</mask>
<g mask="url(#mask0_28_4)">
<path d="M147.978 182H13.0221C5.83018 182 0 176.18 0 169V13C0 5.8203 5.83018 0 13.0221 0H100.625L161 60.2727V169C161 176.18 155.17 182 147.978 182Z" fill="url(#paint1_linear_28_4)"/>
<g filter="url(#filter0_d_28_4)">
<path d="M161 60.2727H122.625C110.475 60.2727 100.625 50.423 100.625 38.2727V0L161 60.2727Z" fill="url(#paint2_linear_28_4)"/>
</g>
</g>
<defs>
<filter id="filter0_d_28_4" x="77.625" y="-24" width="110.375" height="110.273" filterUnits="userSpaceOnUse" color-interpolation-filters="sRGB">
<feFlood flood-opacity="0" result="BackgroundImageFix"/>
<feColorMatrix in="SourceAlpha" type="matrix" values="0 0 0 0 0 0 0 0 0 0 0 0 0 0 0 0 0 0 127 0" result="hardAlpha"/>
<feOffset dx="2" dy="1"/>
<feGaussianBlur stdDeviation="12.5"/>
<feColorMatrix type="matrix" values="0 0 0 0 0 0 0 0 0 0 0 0 0 0 0 0 0 0 0.33 0"/>
<feBlend mode="normal" in2="BackgroundImageFix" result="effect1_dropShadow_28_4"/>
<feBlend mode="normal" in="SourceGraphic" in2="effect1_dropShadow_28_4" result="shape"/>
</filter>
<linearGradient id="paint0_linear_28_4" x1="80.5" y1="0" x2="80.5" y2="182" gradientUnits="userSpaceOnUse">
<stop stop-color="#FF7979"/>
<stop offset="1" stop-color="#E85555"/>
</linearGradient>
<linearGradient id="paint1_linear_28_4" x1="80.5" y1="0" x2="80.5" y2="182" gradientUnits="userSpaceOnUse">
<stop stop-color="#21E4FF"/>
<stop offset="1" stop-color="#0185FF"/>
</linearGradient>
<linearGradient id="paint2_linear_28_4" x1="131" y1="60" x2="131" y2="5.30988e-07" gradientUnits="userSpaceOnUse">
<stop stop-color="#0185FF"/>
<stop offset="1" stop-color="#21E5FF"/>
</linearGradient>
</defs>
</svg>
